<?xml version="1.0" ?><!-- Uploaded to: SVG Repo, www.svgrepo.com, Generator: SVG Repo Mixer Tools -->
<svg fill="#fff" width="800px" height="800px" viewBox="0 0 200 200" data-name="Layer 1" id="Layer_1" xmlns="http://www.w3.org/2000/svg"><title/><path d="M150,34.94c-27.5-27.5-72-27.5-100,0a70.49,70.49,0,0,0-8,90l33.5,48a30.4,30.4,0,0,0,49.5,0l33.5-48A71.18,71.18,0,0,0,150,34.94Zm-8.5,78.5-33.5,48a10.31,10.31,0,0,1-16.5,0l-33.5-48a50.14,50.14,0,0,1,6-64.5c20-20,52-20,71.5,0a50.19,50.19,0,0,1,6,64.5Zm-41.5-67a35,35,0,1,0,35,35A34.78,34.78,0,0,0,100,46.44Zm0,50a15,15,0,1,1,15-15A14.73,14.73,0,0,1,100,96.44Z"/></svg>